<svg xmlns="http://www.w3.org/2000/svg" xmlns:xlink="http://www.w3.org/1999/xlink" width="500" zoomAndPan="magnify" viewBox="0 0 375 374.999991" height="500" preserveAspectRatio="xMidYMid meet" version="1.0"><defs><g/></defs><rect x="-37.5" width="450" fill="#ffffff" y="-37.499999" height="449.999989" fill-opacity="1"/><rect x="-37.5" width="450" fill="#ffffff" y="-37.499999" height="449.999989" fill-opacity="1"/><g fill="#bba0c6" fill-opacity="1"><g transform="translate(49.06367, 246.931315)"><g><path d="M 10.875 0 L 10.875 -2.765625 C 14.132812 -3.765625 16.367188 -5.894531 17.578125 -9.15625 C 18.785156 -12.425781 19.390625 -18.394531 19.390625 -27.0625 L 19.390625 -122.109375 C 19.390625 -130.910156 18.785156 -136.910156 17.578125 -140.109375 C 16.367188 -143.304688 14.132812 -145.398438 10.875 -146.390625 L 10.875 -149.171875 L 109.953125 -149.171875 L 112.296875 -121.46875 L 109.953125 -120.828125 C 106.265625 -130.203125 101.113281 -136.734375 94.5 -140.421875 C 87.894531 -144.117188 79.125 -145.96875 68.1875 -145.96875 L 36.859375 -145.96875 L 36.859375 -81.40625 L 64.140625 -81.40625 C 72.234375 -81.40625 78.519531 -81.9375 83 -83 C 87.476562 -84.0625 90.742188 -85.691406 92.796875 -87.890625 C 94.859375 -90.097656 96.316406 -92.765625 97.171875 -95.890625 L 99.734375 -95.890625 L 99.734375 -63.71875 L 97.171875 -63.71875 C 96.316406 -66.976562 94.859375 -69.675781 92.796875 -71.8125 C 90.742188 -73.945312 87.476562 -75.546875 83 -76.609375 C 78.519531 -77.671875 72.234375 -78.203125 64.140625 -78.203125 L 36.859375 -78.203125 L 36.859375 -12.78125 C 36.859375 -6.394531 40.054688 -3.203125 46.453125 -3.203125 L 74.15625 -3.203125 C 84.382812 -3.203125 92.835938 -4.972656 99.515625 -8.515625 C 106.191406 -12.066406 111.445312 -18.816406 115.28125 -28.765625 L 117.625 -28.34375 L 115.921875 0 Z M 10.875 0 "/></g></g></g><g fill="#bba0c6" fill-opacity="1"><g transform="translate(174.572622, 246.931315)"><g><path d="M 10.875 0 L 10.875 -2.765625 C 14.132812 -3.765625 16.367188 -5.894531 17.578125 -9.15625 C 18.785156 -12.425781 19.390625 -18.394531 19.390625 -27.0625 L 19.390625 -122.109375 C 19.390625 -130.910156 18.785156 -136.910156 17.578125 -140.109375 C 16.367188 -143.304688 14.132812 -145.398438 10.875 -146.390625 L 10.875 -149.171875 L 45.390625 -149.171875 L 45.390625 -146.390625 C 42.117188 -145.398438 39.878906 -143.304688 38.671875 -140.109375 C 37.460938 -136.910156 36.859375 -130.910156 36.859375 -122.109375 L 36.859375 -80.765625 L 118.046875 -80.765625 L 118.046875 -122.109375 C 118.046875 -130.910156 117.441406 -136.910156 116.234375 -140.109375 C 115.035156 -143.304688 112.800781 -145.398438 109.53125 -146.390625 L 109.53125 -149.171875 L 144.046875 -149.171875 L 144.046875 -146.390625 C 140.785156 -145.398438 138.550781 -143.304688 137.34375 -140.109375 C 136.132812 -136.910156 135.53125 -130.910156 135.53125 -122.109375 L 135.53125 -27.0625 C 135.53125 -18.394531 136.132812 -12.425781 137.34375 -9.15625 C 138.550781 -5.894531 140.785156 -3.765625 144.046875 -2.765625 L 144.046875 0 L 109.53125 0 L 109.53125 -2.765625 C 112.800781 -3.765625 115.035156 -5.894531 116.234375 -9.15625 C 117.441406 -12.425781 118.046875 -18.394531 118.046875 -27.0625 L 118.046875 -77.359375 L 36.859375 -77.359375 L 36.859375 -27.0625 C 36.859375 -18.394531 37.460938 -12.425781 38.671875 -9.15625 C 39.878906 -5.894531 42.117188 -3.765625 45.390625 -2.765625 L 45.390625 0 Z M 10.875 0 "/></g></g></g><g fill="#000000" fill-opacity="1"><g transform="translate(32.762292, 201.944782)"><g><path d="M 28.296875 -34.28125 C 27.421875 -32.875 26.894531 -31.34375 26.71875 -29.6875 C 26.507812 -27.164062 27.390625 -25.117188 29.359375 -23.546875 C 30.722656 -22.492188 32.226562 -21.6875 33.875 -21.125 C 37.0625 -20 40.316406 -19.242188 43.640625 -18.859375 C 46.273438 -18.503906 48.921875 -18.242188 51.578125 -18.078125 C 52.421875 -18.035156 53.265625 -18 54.109375 -17.96875 C 56.984375 -17.96875 59.847656 -18.441406 62.703125 -19.390625 C 65.890625 -20.472656 69.160156 -21.140625 72.515625 -21.390625 C 72.546875 -21.390625 72.5625 -21.390625 72.5625 -21.390625 C 73.0625 -21.421875 73.554688 -21.4375 74.046875 -21.4375 C 74.367188 -21.4375 74.664062 -21.421875 74.9375 -21.390625 C 75.394531 -21.347656 75.78125 -21.210938 76.09375 -20.984375 C 76.40625 -20.765625 76.5625 -20.523438 76.5625 -20.265625 C 76.5625 -19.921875 76.457031 -19.644531 76.25 -19.4375 C 76.039062 -19.226562 75.796875 -19.066406 75.515625 -18.953125 C 74.742188 -18.566406 73.976562 -18.289062 73.21875 -18.125 C 71.207031 -17.675781 69.207031 -17.289062 67.21875 -16.96875 C 65.695312 -16.6875 64.191406 -16.507812 62.703125 -16.4375 C 61.390625 -16.4375 60.117188 -16.273438 58.890625 -15.953125 C 57.671875 -15.640625 56.460938 -15.28125 55.265625 -14.875 C 49.242188 -12.800781 43.320312 -10.492188 37.5 -7.953125 C 31.6875 -5.410156 26.023438 -2.503906 20.515625 0.765625 C 18.441406 1.941406 16.421875 3.207031 14.453125 4.5625 C 12.492188 5.914062 10.625 7.382812 8.84375 8.96875 C 8.0625 9.664062 7.34375 10.378906 6.6875 11.109375 C 6.195312 11.640625 5.773438 12.222656 5.421875 12.859375 C 4.691406 14.117188 4.5 15.191406 4.84375 16.078125 C 5.195312 16.972656 6.078125 17.582031 7.484375 17.90625 C 8.660156 18.144531 9.863281 18.28125 11.09375 18.3125 C 11.375 18.3125 11.675781 18.296875 12 18.265625 C 14.6875 18.054688 17.351562 17.6875 20 17.15625 C 22.644531 16.632812 25.269531 16.023438 27.875 15.328125 C 35.132812 13.285156 42.285156 10.972656 49.328125 8.390625 C 50.484375 7.929688 51.550781 7.332031 52.53125 6.59375 C 59.957031 1.570312 67.816406 -2.6875 76.109375 -6.1875 C 79.566406 -7.625 83.117188 -8.835938 86.765625 -9.828125 C 88.316406 -10.304688 89.894531 -10.546875 91.5 -10.546875 C 91.75 -10.585938 91.976562 -10.585938 92.1875 -10.546875 C 92.78125 -10.546875 93.378906 -10.441406 93.984375 -10.234375 C 94.398438 -10.054688 94.503906 -9.742188 94.296875 -9.296875 C 93.972656 -8.773438 93.519531 -8.382812 92.9375 -8.125 C 87.59375 -5.5 82.210938 -2.941406 76.796875 -0.453125 C 71.378906 2.035156 65.90625 4.367188 60.375 6.546875 C 59.644531 6.816406 58.90625 7.113281 58.15625 7.4375 C 56.539062 8.070312 54.914062 8.6875 53.28125 9.28125 C 52.226562 9.65625 51.25 10.179688 50.34375 10.859375 C 47.425781 12.921875 44.59375 15.070312 41.84375 17.3125 C 39.09375 19.550781 36.453125 21.957031 33.921875 24.53125 C 33.890625 24.5625 33.84375 24.613281 33.78125 24.6875 C 33.601562 24.894531 33.40625 25.066406 33.1875 25.203125 C 32.96875 25.335938 32.722656 25.390625 32.453125 25.359375 C 32.378906 25.359375 32.3125 25.359375 32.25 25.359375 C 32.101562 25.390625 31.957031 25.390625 31.8125 25.359375 C 31.664062 25.359375 31.515625 25.332031 31.359375 25.28125 C 31.210938 25.238281 31.101562 25.175781 31.03125 25.09375 C 30.96875 25 30.9375 24.863281 30.9375 24.6875 C 30.9375 24.507812 30.953125 24.367188 30.984375 24.265625 C 31.265625 23.796875 31.582031 23.390625 31.9375 23.046875 C 35.363281 19.710938 38.988281 16.597656 42.8125 13.703125 C 42.957031 13.585938 43.132812 13.515625 43.34375 13.484375 C 43.40625 13.453125 43.472656 13.4375 43.546875 13.4375 C 43.265625 13.257812 43.003906 13.15625 42.765625 13.125 C 42.410156 13.15625 42.054688 13.242188 41.703125 13.390625 C 41.671875 13.390625 41.617188 13.40625 41.546875 13.4375 C 40.921875 13.613281 40.304688 13.800781 39.703125 14 C 37.109375 14.851562 34.519531 15.644531 31.9375 16.375 C 30.53125 16.757812 28.585938 17.238281 26.109375 17.8125 C 23.628906 18.394531 20.941406 18.910156 18.046875 19.359375 C 15.160156 19.816406 12.421875 20.046875 9.828125 20.046875 C 7.242188 20.046875 5.125 19.664062 3.46875 18.90625 C 1.15625 17.632812 0.453125 15.753906 1.359375 13.265625 C 1.828125 12.148438 2.5 11.140625 3.375 10.234375 C 4.832031 8.546875 6.476562 7.03125 8.3125 5.6875 C 11.007812 3.632812 13.820312 1.734375 16.75 -0.015625 C 19.6875 -1.773438 22.675781 -3.425781 25.71875 -4.96875 C 33.144531 -8.789062 40.785156 -12.109375 48.640625 -14.921875 C 49.304688 -15.117188 49.960938 -15.363281 50.609375 -15.65625 C 50.609375 -15.65625 50.625 -15.671875 50.65625 -15.703125 C 50.6875 -15.703125 50.71875 -15.757812 50.75 -15.875 C 50.78125 -15.9375 50.816406 -16 50.859375 -16.0625 C 50.109375 -16.28125 49.367188 -16.390625 48.640625 -16.390625 C 48.328125 -16.390625 47.992188 -16.40625 47.640625 -16.4375 C 47.015625 -16.507812 46.367188 -16.582031 45.703125 -16.65625 C 45.242188 -16.71875 44.789062 -16.765625 44.34375 -16.796875 C 40.28125 -17.234375 36.296875 -18.039062 32.390625 -19.21875 C 30.429688 -19.789062 28.613281 -20.648438 26.9375 -21.796875 C 23.257812 -24.460938 22.148438 -27.953125 23.609375 -32.265625 C 24.378906 -34.398438 25.519531 -36.3125 27.03125 -38 C 28.925781 -40.164062 31 -42.128906 33.25 -43.890625 C 41.132812 -50.128906 49.503906 -55.375 58.359375 -59.625 C 67.210938 -63.882812 76.578125 -67.066406 86.453125 -69.171875 C 91.222656 -70.160156 96.046875 -70.65625 100.921875 -70.65625 C 101.265625 -70.65625 101.597656 -70.65625 101.921875 -70.65625 C 104.617188 -70.625 107.238281 -70.28125 109.78125 -69.625 C 112.320312 -68.976562 114.800781 -68.09375 117.21875 -66.96875 C 118.445312 -66.445312 119.53125 -65.71875 120.46875 -64.78125 C 121.039062 -64.28125 121.390625 -63.664062 121.515625 -62.9375 C 121.566406 -62.675781 121.503906 -62.453125 121.328125 -62.265625 C 121.148438 -62.078125 120.9375 -61.984375 120.6875 -61.984375 C 120.539062 -61.984375 120.40625 -61.984375 120.28125 -61.984375 C 120.195312 -61.984375 120.125 -61.984375 120.0625 -61.984375 C 119.507812 -61.953125 119.054688 -62.125 118.703125 -62.5 C 117.710938 -63.695312 116.566406 -64.617188 115.265625 -65.265625 C 113.972656 -65.910156 112.625 -66.476562 111.21875 -66.96875 C 111.125 -67.007812 111.019531 -67.046875 110.90625 -67.078125 C 107.375 -68.347656 103.796875 -68.957031 100.171875 -68.90625 C 98.242188 -68.90625 96.316406 -68.769531 94.390625 -68.5 C 87.054688 -67.519531 79.992188 -65.789062 73.203125 -63.3125 C 66.410156 -60.84375 59.816406 -57.828125 53.421875 -54.265625 C 49.816406 -52.253906 46.320312 -50.082031 42.9375 -47.75 C 39.550781 -45.425781 36.320312 -42.863281 33.25 -40.0625 C 31.320312 -38.375 29.671875 -36.445312 28.296875 -34.28125 Z M 86.625 -7.984375 L 86.765625 -7.90625 Z M 64.796875 1.8125 C 63.984375 2.226562 64.023438 2.273438 64.921875 1.953125 C 65.816406 1.640625 67.179688 1.109375 69.015625 0.359375 C 70.859375 -0.390625 72.835938 -1.207031 74.953125 -2.09375 C 77.078125 -2.988281 78.960938 -3.785156 80.609375 -4.484375 C 82.265625 -5.191406 83.320312 -5.671875 83.78125 -5.921875 C 84.445312 -6.242188 85.09375 -6.582031 85.71875 -6.9375 C 85.789062 -6.96875 85.863281 -7 85.9375 -7.03125 C 86.070312 -7.09375 86.15625 -7.1875 86.1875 -7.3125 C 86.21875 -7.4375 86.234375 -7.550781 86.234375 -7.65625 C 86.003906 -7.550781 85.757812 -7.460938 85.5 -7.390625 C 85.375 -7.390625 85.253906 -7.375 85.140625 -7.34375 C 80.441406 -5.789062 75.882812 -3.914062 71.46875 -1.71875 C 69.78125 -0.875 68.113281 0 66.46875 0.90625 C 65.914062 1.226562 65.359375 1.53125 64.796875 1.8125 Z M 43.546875 13.390625 C 43.546875 13.390625 43.5625 13.390625 43.59375 13.390625 C 43.59375 13.390625 43.578125 13.390625 43.546875 13.390625 Z M 43.546875 13.265625 C 43.609375 13.296875 43.644531 13.3125 43.65625 13.3125 C 43.675781 13.3125 43.6875 13.300781 43.6875 13.28125 C 43.6875 13.269531 43.675781 13.253906 43.65625 13.234375 C 43.644531 13.222656 43.628906 13.222656 43.609375 13.234375 C 43.597656 13.253906 43.578125 13.265625 43.546875 13.265625 Z M 43.546875 13.265625 "/></g></g></g><g fill="#000000" fill-opacity="1"><g transform="translate(126.902158, 201.944782)"><g><path d="M 11.5625 -11.40625 C 12.09375 -11.925781 12.53125 -12.21875 12.875 -12.28125 C 13.226562 -12.34375 13.457031 -12.285156 13.5625 -12.109375 C 13.664062 -11.941406 13.597656 -11.707031 13.359375 -11.40625 C 11.960938 -9.71875 10.394531 -8.257812 8.65625 -7.03125 C 6.914062 -5.800781 5.125 -5.085938 3.28125 -4.890625 C 1.445312 -4.703125 0.335938 -5.707031 -0.046875 -7.90625 C -0.335938 -10.09375 0.976562 -14.539062 3.90625 -21.25 C 6.84375 -27.957031 9.164062 -33.457031 10.875 -37.75 C 11.019531 -38.125 11.234375 -38.457031 11.515625 -38.75 C 11.898438 -39.125 12.359375 -39.210938 12.890625 -39.015625 C 13.054688 -38.929688 13.226562 -38.800781 13.40625 -38.625 C 13.582031 -38.445312 13.640625 -38.132812 13.578125 -37.6875 C 6.035156 -19.8125 2.382812 -10.09375 2.625 -8.53125 C 2.863281 -6.96875 3.867188 -6.582031 5.640625 -7.375 C 7.421875 -8.164062 8.789062 -8.96875 9.75 -9.78125 C 10.71875 -10.601562 11.320312 -11.144531 11.5625 -11.40625 Z M 11.5625 -11.40625 "/></g></g></g><g fill="#000000" fill-opacity="1"><g transform="translate(137.848668, 201.944782)"><g><path d="M 11.5625 -11.40625 C 12.09375 -11.925781 12.53125 -12.21875 12.875 -12.28125 C 13.226562 -12.34375 13.457031 -12.285156 13.5625 -12.109375 C 13.664062 -11.941406 13.597656 -11.707031 13.359375 -11.40625 C 11.960938 -9.71875 10.394531 -8.257812 8.65625 -7.03125 C 6.914062 -5.800781 5.125 -5.085938 3.28125 -4.890625 C 1.445312 -4.703125 0.335938 -5.707031 -0.046875 -7.90625 C -0.335938 -10.09375 0.976562 -14.539062 3.90625 -21.25 C 6.84375 -27.957031 9.164062 -33.457031 10.875 -37.75 C 11.019531 -38.125 11.234375 -38.457031 11.515625 -38.75 C 11.898438 -39.125 12.359375 -39.210938 12.890625 -39.015625 C 13.054688 -38.929688 13.226562 -38.800781 13.40625 -38.625 C 13.582031 -38.445312 13.640625 -38.132812 13.578125 -37.6875 C 6.035156 -19.8125 2.382812 -10.09375 2.625 -8.53125 C 2.863281 -6.96875 3.867188 -6.582031 5.640625 -7.375 C 7.421875 -8.164062 8.789062 -8.96875 9.75 -9.78125 C 10.71875 -10.601562 11.320312 -11.144531 11.5625 -11.40625 Z M 11.5625 -11.40625 "/></g></g></g><g fill="#000000" fill-opacity="1"><g transform="translate(148.795173, 201.944782)"><g><path d="M 13.625 -9.171875 C 12.695312 -8.265625 11.617188 -7.488281 10.390625 -6.84375 C 9.171875 -6.195312 8.144531 -5.773438 7.3125 -5.578125 C 6.488281 -5.378906 5.632812 -5.265625 4.75 -5.234375 C 3.351562 -5.171875 2.066406 -5.363281 0.890625 -5.8125 C -1.046875 -6.59375 -1.71875 -8.082031 -1.125 -10.28125 C -0.5625 -12.175781 0.566406 -13.65625 2.265625 -14.71875 C 3.972656 -15.789062 5.734375 -16.3125 7.546875 -16.28125 C 7.546875 -16.28125 7.5625 -16.28125 7.59375 -16.28125 C 8.0625 -16.3125 8.503906 -16.28125 8.921875 -16.1875 C 9.617188 -15.925781 10.0625 -15.507812 10.25 -14.9375 C 10.445312 -14.363281 10.320312 -13.726562 9.875 -13.03125 C 8.851562 -11.476562 7.46875 -10.617188 5.71875 -10.453125 C 4.550781 -10.335938 3.425781 -10.390625 2.34375 -10.609375 C 2.132812 -10.640625 1.945312 -10.582031 1.78125 -10.4375 C 1.625 -10.300781 1.53125 -10.128906 1.5 -9.921875 C 1.1875 -8.546875 1.609375 -7.671875 2.765625 -7.296875 C 4.203125 -6.796875 5.695312 -6.796875 7.25 -7.296875 C 9.03125 -7.847656 10.722656 -8.894531 12.328125 -10.4375 C 13.941406 -11.988281 14.867188 -12.710938 15.109375 -12.609375 C 15.359375 -12.503906 15.4375 -12.207031 15.34375 -11.71875 C 15.125 -10.9375 14.550781 -10.085938 13.625 -9.171875 Z M 3.4375 -13.03125 C 3.34375 -12.914062 3.273438 -12.789062 3.234375 -12.65625 C 3.191406 -12.519531 3.242188 -12.394531 3.390625 -12.28125 C 3.953125 -11.96875 4.554688 -11.851562 5.203125 -11.9375 C 5.859375 -12.03125 6.410156 -12.28125 6.859375 -12.6875 C 7.316406 -13.09375 7.515625 -13.585938 7.453125 -14.171875 C 7.410156 -14.378906 7.300781 -14.507812 7.125 -14.5625 C 6.945312 -14.625 6.769531 -14.640625 6.59375 -14.609375 C 5.414062 -14.398438 4.363281 -13.875 3.4375 -13.03125 Z M 3.4375 -13.03125 "/></g></g></g><g fill="#000000" fill-opacity="1"><g transform="translate(161.725309, 201.944782)"><g/></g></g><g fill="#000000" fill-opacity="1"><g transform="translate(178.813919, 201.944782)"><g><path d="M 120.0625 0.90625 C 120.125 0.9375 120.191406 0.992188 120.265625 1.078125 C 120.335938 1.171875 120.375 1.273438 120.375 1.390625 C 120.375 1.566406 120.320312 1.703125 120.21875 1.796875 C 120.113281 1.898438 119.988281 1.953125 119.84375 1.953125 L 119.375 1.90625 C 119.3125 1.9375 119.265625 1.953125 119.234375 1.953125 C 110.390625 1.460938 101.671875 1.164062 93.078125 1.0625 C 84.484375 0.957031 75.820312 0.921875 67.09375 0.953125 C 65.65625 0.953125 64.238281 0.953125 62.84375 0.953125 C 61.96875 0.953125 61.257812 1.117188 60.71875 1.453125 C 60.175781 1.785156 59.710938 2.378906 59.328125 3.234375 C 57.078125 8.347656 54.78125 13.445312 52.4375 18.53125 C 51.164062 21.300781 49.898438 24.070312 48.640625 26.84375 C 47.734375 28.863281 46.84375 30.910156 45.96875 32.984375 C 45.5 34.003906 45.0625 35.023438 44.65625 36.046875 C 44.625 36.140625 44.566406 36.242188 44.484375 36.359375 C 44.421875 36.640625 44.300781 36.898438 44.125 37.140625 C 43.832031 37.378906 43.457031 37.519531 43 37.5625 C 42.550781 37.601562 42.160156 37.515625 41.828125 37.296875 C 41.492188 37.085938 41.398438 36.71875 41.546875 36.1875 C 41.859375 35.3125 42.207031 34.457031 42.59375 33.625 C 45.957031 25.945312 49.34375 18.269531 52.75 10.59375 C 53.550781 8.800781 54.359375 6.988281 55.171875 5.15625 C 55.273438 4.882812 55.394531 4.59375 55.53125 4.28125 C 55.8125 3.644531 56.097656 3.015625 56.390625 2.390625 C 56.660156 1.691406 56.484375 1.300781 55.859375 1.21875 C 51.398438 1.332031 46.960938 1.53125 42.546875 1.8125 C 40.234375 1.945312 37.898438 2.066406 35.546875 2.171875 C 34.222656 2.203125 33.296875 2.832031 32.765625 4.0625 C 30.460938 9.050781 28.054688 14 25.546875 18.90625 C 24.085938 21.800781 22.597656 24.707031 21.078125 27.625 C 20.523438 28.675781 19.96875 29.726562 19.40625 30.78125 C 19.09375 31.457031 18.742188 32.085938 18.359375 32.671875 C 17.972656 33.203125 17.453125 33.523438 16.796875 33.640625 C 16.148438 33.765625 15.582031 33.726562 15.09375 33.53125 C 14.601562 33.34375 14.375 33.039062 14.40625 32.625 C 14.582031 31.8125 14.832031 31.039062 15.15625 30.3125 C 17.675781 23.851562 20.425781 17.507812 23.40625 11.28125 C 24.457031 9.0625 25.507812 6.847656 26.5625 4.640625 C 26.84375 3.929688 26.648438 3.535156 25.984375 3.453125 C 25.316406 3.367188 24.335938 3.394531 23.046875 3.53125 C 23.015625 3.53125 22.957031 3.53125 22.875 3.53125 C 20.625 3.738281 18.316406 4.050781 15.953125 4.46875 C 13.585938 4.894531 12.039062 5.210938 11.3125 5.421875 C 10.570312 5.597656 9.820312 5.6875 9.0625 5.6875 C 9.007812 5.738281 8.953125 5.765625 8.890625 5.765625 C 8.828125 5.765625 8.753906 5.738281 8.671875 5.6875 L 8.265625 5.765625 C 8.128906 5.765625 7.988281 5.707031 7.84375 5.59375 C 7.695312 5.476562 7.625 5.332031 7.625 5.15625 C 7.65625 5.0625 7.710938 4.941406 7.796875 4.796875 C 7.890625 4.660156 7.992188 4.5625 8.109375 4.5 C 10.910156 3.507812 13.769531 2.820312 16.6875 2.4375 C 20.019531 1.945312 23.347656 1.523438 26.671875 1.171875 C 27.785156 1.140625 28.578125 0.628906 29.046875 -0.359375 C 30.015625 -2.347656 31.023438 -4.335938 32.078125 -6.328125 C 33.335938 -8.691406 34.617188 -11.046875 35.921875 -13.390625 C 36.367188 -14.265625 36.820312 -15.140625 37.28125 -16.015625 C 37.351562 -16.097656 37.410156 -16.1875 37.453125 -16.28125 C 37.578125 -16.5625 37.726562 -16.820312 37.90625 -17.0625 C 38.78125 -18.082031 39.515625 -19.191406 40.109375 -20.390625 C 40.710938 -21.585938 41.265625 -22.8125 41.765625 -24.0625 C 41.992188 -24.59375 42.222656 -25.117188 42.453125 -25.640625 C 46.691406 -35.203125 50.875 -44.789062 55 -54.40625 C 56.894531 -58.613281 58.351562 -62.945312 59.375 -67.40625 C 59.789062 -69.019531 59.894531 -70.628906 59.6875 -72.234375 C 59.476562 -73.171875 58.863281 -73.660156 57.84375 -73.703125 C 56.820312 -73.742188 55.585938 -73.476562 54.140625 -72.90625 C 52.691406 -72.34375 51.1875 -71.660156 49.625 -70.859375 C 48.0625 -70.054688 46.648438 -69.265625 45.390625 -68.484375 C 44.128906 -67.710938 43.195312 -67.140625 42.59375 -66.765625 C 42.414062 -66.671875 42.296875 -66.597656 42.234375 -66.546875 C 25.785156 -56.316406 11.0625 -44.03125 -1.9375 -29.6875 C -3.375 -28.113281 -4.75 -26.484375 -6.0625 -24.796875 C -7.375 -23.117188 -8.582031 -21.347656 -9.6875 -19.484375 C -10.507812 -18.078125 -11.171875 -16.609375 -11.671875 -15.078125 C -12.273438 -12.722656 -12.101562 -10.921875 -11.15625 -9.671875 C -10.207031 -8.429688 -8.785156 -7.597656 -6.890625 -7.171875 C -4.992188 -6.753906 -2.929688 -6.609375 -0.703125 -6.734375 C 1.515625 -6.867188 3.609375 -7.097656 5.578125 -7.421875 C 7.546875 -7.742188 9.070312 -8.066406 10.15625 -8.390625 C 11.445312 -8.710938 12.75 -9.015625 14.0625 -9.296875 C 15.175781 -9.503906 15.484375 -9.429688 14.984375 -9.078125 C 14.492188 -8.734375 13.425781 -8.253906 11.78125 -7.640625 C 10.144531 -7.023438 8.175781 -6.425781 5.875 -5.84375 C 3.570312 -5.257812 1.191406 -4.84375 -1.265625 -4.59375 C -3.722656 -4.351562 -6.023438 -4.40625 -8.171875 -4.75 C -10.328125 -5.101562 -12.082031 -5.90625 -13.4375 -7.15625 C -14.789062 -8.40625 -15.484375 -10.257812 -15.515625 -12.71875 C -15.515625 -12.78125 -15.515625 -12.84375 -15.515625 -12.90625 C -15.429688 -14.445312 -15.0625 -15.921875 -14.40625 -17.328125 C -13.3125 -19.859375 -11.910156 -22.207031 -10.203125 -24.375 C -8.398438 -26.71875 -6.519531 -28.984375 -4.5625 -31.171875 C 8.050781 -45.015625 22.265625 -56.96875 38.078125 -67.03125 C 39.941406 -68.21875 42.109375 -69.519531 44.578125 -70.9375 C 47.046875 -72.363281 49.585938 -73.554688 52.203125 -74.515625 C 54.816406 -75.484375 57.265625 -75.914062 59.546875 -75.8125 C 62.054688 -75.675781 63.429688 -74.363281 63.671875 -71.875 C 63.785156 -70.945312 63.78125 -70.046875 63.65625 -69.171875 C 63.539062 -68.296875 63.375 -67.421875 63.15625 -66.546875 C 63.125 -66.421875 63.09375 -66.285156 63.0625 -66.140625 C 62.59375 -64.035156 61.988281 -61.984375 61.25 -59.984375 C 60.519531 -57.984375 59.734375 -56.003906 58.890625 -54.046875 C 51.703125 -36.960938 44.179688 -20.046875 36.328125 -3.296875 C 36.085938 -2.804688 35.863281 -2.296875 35.65625 -1.765625 C 35.3125 -0.953125 35.347656 -0.390625 35.765625 -0.078125 C 36.191406 0.222656 36.898438 0.375 37.890625 0.375 C 38.890625 0.375 40.0625 0.328125 41.40625 0.234375 C 41.601562 0.234375 41.804688 0.210938 42.015625 0.171875 C 42.898438 0.140625 43.796875 0.09375 44.703125 0.03125 C 48.734375 -0.289062 52.734375 -0.507812 56.703125 -0.625 C 57.398438 -0.625 57.882812 -0.914062 58.15625 -1.5 C 58.476562 -2.144531 58.78125 -2.789062 59.0625 -3.4375 C 64.238281 -14.832031 69.625 -26.125 75.21875 -37.3125 C 80.8125 -48.5 86.484375 -59.644531 92.234375 -70.75 C 92.304688 -70.894531 92.378906 -71.039062 92.453125 -71.1875 C 92.660156 -71.707031 92.972656 -72.144531 93.390625 -72.5 C 93.703125 -72.675781 94.070312 -72.765625 94.5 -72.765625 C 94.925781 -72.765625 95.285156 -72.664062 95.578125 -72.46875 C 95.867188 -72.28125 95.925781 -71.941406 95.75 -71.453125 C 95.71875 -71.335938 95.671875 -71.21875 95.609375 -71.09375 C 95.148438 -69.894531 94.640625 -68.710938 94.078125 -67.546875 C 91.242188 -61.847656 88.382812 -56.148438 85.5 -50.453125 C 84.5 -48.429688 83.488281 -46.398438 82.46875 -44.359375 C 75.769531 -31.003906 69.210938 -17.582031 62.796875 -4.09375 C 62.679688 -3.832031 62.5625 -3.582031 62.4375 -3.34375 C 62.289062 -3.0625 62.160156 -2.785156 62.046875 -2.515625 C 61.671875 -1.671875 61.648438 -1.125 61.984375 -0.875 C 62.316406 -0.625 62.847656 -0.539062 63.578125 -0.625 C 71.265625 -1.039062 79.09375 -1.128906 87.0625 -0.890625 C 95.039062 -0.660156 102.957031 -0.335938 110.8125 0.078125 C 113.21875 0.179688 115.617188 0.300781 118.015625 0.4375 C 118.117188 0.4375 118.203125 0.4375 118.265625 0.4375 C 118.585938 0.4375 118.90625 0.460938 119.21875 0.515625 C 119.53125 0.566406 119.8125 0.695312 120.0625 0.90625 Z M 120.0625 0.90625 "/></g></g></g><g fill="#000000" fill-opacity="1"><g transform="translate(253.54757, 201.944782)"><g><path d="M 17.34375 -12.171875 C 17.71875 -11.960938 17.742188 -11.441406 17.421875 -10.609375 C 16.960938 -10.003906 16.46875 -9.4375 15.9375 -8.90625 C 15.414062 -8.382812 14.84375 -7.914062 14.21875 -7.5 C 14.175781 -7.5 14.15625 -7.484375 14.15625 -7.453125 C 13.738281 -7.171875 13.296875 -6.925781 12.828125 -6.71875 C 9.023438 -5.34375 7.082031 -6.144531 7 -9.125 C 5.457031 -7.789062 4.421875 -6.972656 3.890625 -6.671875 C 2.640625 -5.921875 1.28125 -5.585938 -0.1875 -5.671875 C -1.269531 -5.734375 -2.003906 -6.0625 -2.390625 -6.65625 C -2.785156 -7.25 -2.753906 -8.054688 -2.296875 -9.078125 C -1.597656 -10.691406 -0.601562 -12.128906 0.6875 -13.390625 C 2.207031 -14.785156 3.890625 -15.90625 5.734375 -16.75 C 6.722656 -17.25 7.757812 -17.441406 8.84375 -17.328125 C 9.925781 -17.265625 10.578125 -16.648438 10.796875 -15.484375 C 10.898438 -15.140625 10.816406 -14.832031 10.546875 -14.5625 C 10.191406 -14.238281 9.785156 -14.164062 9.328125 -14.34375 C 9.296875 -14.34375 9.25 -14.347656 9.1875 -14.359375 C 9.132812 -14.378906 9.09375 -14.40625 9.0625 -14.4375 C 8.59375 -15.070312 8.125 -15.335938 7.65625 -15.234375 C 7.1875 -15.128906 6.691406 -14.921875 6.171875 -14.609375 C 3.710938 -13.171875 1.882812 -11.171875 0.6875 -8.609375 C 0.625 -8.492188 0.582031 -8.367188 0.5625 -8.234375 C 0.550781 -8.097656 0.59375 -7.988281 0.6875 -7.90625 C 0.976562 -7.8125 1.296875 -7.832031 1.640625 -7.96875 C 1.992188 -8.101562 2.347656 -8.300781 2.703125 -8.5625 C 3.054688 -8.832031 3.347656 -9.050781 3.578125 -9.21875 C 3.617188 -9.269531 3.640625 -9.296875 3.640625 -9.296875 C 4.796875 -10.265625 5.929688 -11.257812 7.046875 -12.28125 C 7.546875 -12.8125 8.160156 -13.109375 8.890625 -13.171875 C 9.941406 -13.171875 10.378906 -12.703125 10.203125 -11.765625 C 10.109375 -11.410156 10.003906 -11.054688 9.890625 -10.703125 C 9.484375 -9.191406 9.46875 -8.304688 9.84375 -8.046875 C 10.226562 -7.785156 10.8125 -7.785156 11.59375 -8.046875 C 12.382812 -8.304688 13.175781 -8.804688 13.96875 -9.546875 C 14.757812 -10.285156 15.425781 -10.960938 15.96875 -11.578125 C 16.507812 -12.191406 16.96875 -12.390625 17.34375 -12.171875 Z M 17.34375 -12.171875 "/></g></g></g><g fill="#000000" fill-opacity="1"><g transform="translate(268.413554, 201.944782)"><g><path d="M 21.75 -20.703125 C 21.925781 -20.703125 22.09375 -20.617188 22.25 -20.453125 C 22.414062 -20.296875 22.460938 -20.128906 22.390625 -19.953125 C 22.285156 -19.679688 22.160156 -19.421875 22.015625 -19.171875 C 19.734375 -15.285156 17.101562 -11.644531 14.125 -8.25 C 13.363281 -7.375 12.523438 -6.546875 11.609375 -5.765625 C 11.179688 -5.378906 10.691406 -5.082031 10.140625 -4.875 C 9.117188 -4.445312 8.328125 -4.441406 7.765625 -4.859375 C 7.210938 -5.285156 6.96875 -6.039062 7.03125 -7.125 C 7.070312 -7.300781 7.109375 -7.476562 7.140625 -7.65625 C 7.171875 -7.90625 7.195312 -8.175781 7.21875 -8.46875 C 7.238281 -8.769531 7.195312 -9.09375 7.09375 -9.4375 C 6.664062 -9.0625 6.257812 -8.695312 5.875 -8.34375 C 5.0625 -7.570312 4.273438 -6.835938 3.515625 -6.140625 C 2.671875 -5.359375 1.675781 -5.054688 0.53125 -5.234375 C -0.25 -5.378906 -0.710938 -5.816406 -0.859375 -6.546875 C -0.921875 -7.148438 -0.921875 -7.75 -0.859375 -8.34375 C -0.503906 -10.96875 0.144531 -13.507812 1.09375 -15.96875 C 1.269531 -16.351562 1.492188 -16.671875 1.765625 -16.921875 C 2.117188 -17.304688 2.554688 -17.410156 3.078125 -17.234375 C 3.609375 -17.023438 3.828125 -16.632812 3.734375 -16.0625 C 3.617188 -15.582031 3.488281 -15.097656 3.34375 -14.609375 C 3.3125 -14.429688 3.28125 -14.253906 3.25 -14.078125 C 2.832031 -12.566406 2.546875 -11.398438 2.390625 -10.578125 C 2.234375 -9.753906 2.160156 -9.191406 2.171875 -8.890625 C 2.191406 -8.585938 2.273438 -8.492188 2.421875 -8.609375 C 3.003906 -8.890625 3.515625 -9.265625 3.953125 -9.734375 C 4.390625 -10.210938 4.800781 -10.695312 5.1875 -11.1875 C 5.507812 -11.632812 5.859375 -12.070312 6.234375 -12.5 C 6.640625 -12.914062 7.015625 -13.335938 7.359375 -13.765625 C 7.660156 -14.179688 7.988281 -14.582031 8.34375 -14.96875 C 8.65625 -15.3125 9.03125 -15.613281 9.46875 -15.875 C 10.019531 -16.144531 10.578125 -16.101562 11.140625 -15.75 C 11.378906 -15.570312 11.515625 -15.367188 11.546875 -15.140625 C 11.585938 -14.921875 11.570312 -14.6875 11.5 -14.4375 C 11.289062 -13.5 11.082031 -12.550781 10.875 -11.59375 C 10.757812 -11.113281 10.640625 -10.644531 10.515625 -10.1875 C 10.429688 -9.800781 10.359375 -9.414062 10.296875 -9.03125 C 10.265625 -8.882812 10.265625 -8.738281 10.296875 -8.59375 C 10.328125 -8.457031 10.414062 -8.375 10.5625 -8.34375 C 10.65625 -8.3125 10.742188 -8.3125 10.828125 -8.34375 C 10.921875 -8.375 11.007812 -8.429688 11.09375 -8.515625 C 11.539062 -8.890625 11.9375 -9.300781 12.28125 -9.75 C 13.03125 -10.707031 13.773438 -11.65625 14.515625 -12.59375 C 15.066406 -13.375 15.640625 -14.132812 16.234375 -14.875 C 17.460938 -16.507812 18.726562 -18.117188 20.03125 -19.703125 C 20.445312 -20.304688 21.019531 -20.640625 21.75 -20.703125 Z M 21.75 -20.703125 "/></g></g></g><g fill="#000000" fill-opacity="1"><g transform="translate(286.864443, 201.944782)"><g><path d="M 11.5625 -11.40625 C 12.09375 -11.925781 12.53125 -12.21875 12.875 -12.28125 C 13.226562 -12.34375 13.457031 -12.285156 13.5625 -12.109375 C 13.664062 -11.941406 13.597656 -11.707031 13.359375 -11.40625 C 11.960938 -9.71875 10.394531 -8.257812 8.65625 -7.03125 C 6.914062 -5.800781 5.125 -5.085938 3.28125 -4.890625 C 1.445312 -4.703125 0.335938 -5.707031 -0.046875 -7.90625 C -0.335938 -10.09375 0.976562 -14.539062 3.90625 -21.25 C 6.84375 -27.957031 9.164062 -33.457031 10.875 -37.75 C 11.019531 -38.125 11.234375 -38.457031 11.515625 -38.75 C 11.898438 -39.125 12.359375 -39.210938 12.890625 -39.015625 C 13.054688 -38.929688 13.226562 -38.800781 13.40625 -38.625 C 13.582031 -38.445312 13.640625 -38.132812 13.578125 -37.6875 C 6.035156 -19.8125 2.382812 -10.09375 2.625 -8.53125 C 2.863281 -6.96875 3.867188 -6.582031 5.640625 -7.375 C 7.421875 -8.164062 8.789062 -8.96875 9.75 -9.78125 C 10.71875 -10.601562 11.320312 -11.144531 11.5625 -11.40625 Z M 11.5625 -11.40625 "/></g></g></g><g fill="#000000" fill-opacity="1"><g transform="translate(297.810947, 201.944782)"><g><path d="M 13.625 -9.171875 C 12.695312 -8.265625 11.617188 -7.488281 10.390625 -6.84375 C 9.171875 -6.195312 8.144531 -5.773438 7.3125 -5.578125 C 6.488281 -5.378906 5.632812 -5.265625 4.75 -5.234375 C 3.351562 -5.171875 2.066406 -5.363281 0.890625 -5.8125 C -1.046875 -6.59375 -1.71875 -8.082031 -1.125 -10.28125 C -0.5625 -12.175781 0.566406 -13.65625 2.265625 -14.71875 C 3.972656 -15.789062 5.734375 -16.3125 7.546875 -16.28125 C 7.546875 -16.28125 7.5625 -16.28125 7.59375 -16.28125 C 8.0625 -16.3125 8.503906 -16.28125 8.921875 -16.1875 C 9.617188 -15.925781 10.0625 -15.507812 10.25 -14.9375 C 10.445312 -14.363281 10.320312 -13.726562 9.875 -13.03125 C 8.851562 -11.476562 7.46875 -10.617188 5.71875 -10.453125 C 4.550781 -10.335938 3.425781 -10.390625 2.34375 -10.609375 C 2.132812 -10.640625 1.945312 -10.582031 1.78125 -10.4375 C 1.625 -10.300781 1.53125 -10.128906 1.5 -9.921875 C 1.1875 -8.546875 1.609375 -7.671875 2.765625 -7.296875 C 4.203125 -6.796875 5.695312 -6.796875 7.25 -7.296875 C 9.03125 -7.847656 10.722656 -8.894531 12.328125 -10.4375 C 13.941406 -11.988281 14.867188 -12.710938 15.109375 -12.609375 C 15.359375 -12.503906 15.4375 -12.207031 15.34375 -11.71875 C 15.125 -10.9375 14.550781 -10.085938 13.625 -9.171875 Z M 3.4375 -13.03125 C 3.34375 -12.914062 3.273438 -12.789062 3.234375 -12.65625 C 3.191406 -12.519531 3.242188 -12.394531 3.390625 -12.28125 C 3.953125 -11.96875 4.554688 -11.851562 5.203125 -11.9375 C 5.859375 -12.03125 6.410156 -12.28125 6.859375 -12.6875 C 7.316406 -13.09375 7.515625 -13.585938 7.453125 -14.171875 C 7.410156 -14.378906 7.300781 -14.507812 7.125 -14.5625 C 6.945312 -14.625 6.769531 -14.640625 6.59375 -14.609375 C 5.414062 -14.398438 4.363281 -13.875 3.4375 -13.03125 Z M 3.4375 -13.03125 "/></g></g></g><g fill="#000000" fill-opacity="1"><g transform="translate(310.741097, 201.944782)"><g><path d="M 18.765625 -12.46875 C 18.972656 -12.0625 18.628906 -11.4375 17.734375 -10.59375 C 16.835938 -9.757812 15.269531 -8.742188 13.03125 -7.546875 C 12.1875 -7.203125 11.570312 -6.925781 11.1875 -6.71875 C 10.800781 -6.507812 10.519531 -6.242188 10.34375 -5.921875 C 10.175781 -5.609375 9.988281 -5.117188 9.78125 -4.453125 C 9.601562 -3.953125 9.367188 -3.289062 9.078125 -2.46875 C 8.703125 -1.445312 8.320312 -0.394531 7.9375 0.6875 C 7.238281 2.90625 6.40625 5.09375 5.4375 7.25 C 4.46875 9.414062 3.21875 11.300781 1.6875 12.90625 C 0.164062 14.519531 -1.796875 15.585938 -4.203125 16.109375 C -6.628906 16.566406 -8.972656 16.632812 -11.234375 16.3125 C -13.492188 16 -15.707031 15.375 -17.875 14.4375 C -18.75 14.039062 -19.539062 13.515625 -20.25 12.859375 C -21.40625 11.660156 -21.492188 10.320312 -20.515625 8.84375 C -19.984375 8.113281 -19.367188 7.453125 -18.671875 6.859375 C -17.265625 5.722656 -15.796875 4.6875 -14.265625 3.75 C -11.410156 2.03125 -8.492188 0.457031 -5.515625 -0.96875 C -2.535156 -2.40625 0.472656 -3.796875 3.515625 -5.140625 C 3.722656 -5.234375 3.953125 -5.335938 4.203125 -5.453125 C 5.035156 -5.835938 5.890625 -6.21875 6.765625 -6.59375 C 7.367188 -6.820312 7.773438 -7.226562 7.984375 -7.8125 C 8.046875 -8.019531 8.0625 -8.210938 8.03125 -8.390625 C 8 -8.503906 7.9375 -8.566406 7.84375 -8.578125 C 7.757812 -8.597656 7.660156 -8.578125 7.546875 -8.515625 C 7.242188 -8.335938 6.9375 -8.132812 6.625 -7.90625 C 6.445312 -7.8125 6.253906 -7.691406 6.046875 -7.546875 C 4.941406 -6.910156 3.800781 -6.632812 2.625 -6.71875 C 0.757812 -6.71875 -0.1875 -7.550781 -0.21875 -9.21875 C -0.25 -10.59375 -0.015625 -11.894531 0.484375 -13.125 C 0.992188 -14.351562 1.707031 -15.507812 2.625 -16.59375 C 2.71875 -16.695312 2.851562 -16.785156 3.03125 -16.859375 C 3.207031 -16.929688 3.382812 -16.984375 3.5625 -17.015625 C 3.59375 -17.015625 3.632812 -17.03125 3.6875 -17.0625 C 4.03125 -17.09375 4.296875 -17.003906 4.484375 -16.796875 C 4.679688 -16.597656 4.722656 -16.335938 4.609375 -16.015625 C 4.398438 -15.566406 4.191406 -15.113281 3.984375 -14.65625 C 3.816406 -14.300781 3.644531 -13.945312 3.46875 -13.59375 C 2.769531 -12.226562 2.453125 -10.796875 2.515625 -9.296875 C 2.546875 -8.972656 2.679688 -8.738281 2.921875 -8.59375 C 3.171875 -8.457031 3.457031 -8.460938 3.78125 -8.609375 C 4.71875 -8.984375 5.535156 -9.523438 6.234375 -10.234375 C 8.128906 -11.953125 9.691406 -13.9375 10.921875 -16.1875 C 11.097656 -16.5 11.300781 -16.765625 11.53125 -16.984375 C 11.757812 -17.210938 12.066406 -17.34375 12.453125 -17.375 C 12.941406 -17.425781 13.316406 -17.316406 13.578125 -17.046875 C 13.847656 -16.785156 13.925781 -16.441406 13.8125 -16.015625 C 13.363281 -14.578125 12.894531 -13.160156 12.40625 -11.765625 C 12.375 -11.648438 12.332031 -11.546875 12.28125 -11.453125 C 12.15625 -11.128906 12.035156 -10.789062 11.921875 -10.4375 C 11.816406 -10.09375 11.765625 -9.785156 11.765625 -9.515625 C 11.765625 -9.253906 11.875 -9.125 12.09375 -9.125 C 12.96875 -9.300781 14.242188 -10.003906 15.921875 -11.234375 C 17.609375 -12.460938 18.554688 -12.875 18.765625 -12.46875 Z M 6.234375 -2.875 C 6.234375 -2.945312 6.257812 -3.015625 6.3125 -3.078125 C 6.40625 -3.253906 6.457031 -3.445312 6.46875 -3.65625 C 6.488281 -3.863281 6.4375 -4.078125 6.3125 -4.296875 C 6.195312 -4.296875 6.109375 -4.296875 6.046875 -4.296875 C 5.828125 -4.253906 5.628906 -4.203125 5.453125 -4.140625 C 5.097656 -3.992188 4.742188 -3.832031 4.390625 -3.65625 C 1.585938 -2.363281 -1.210938 -1.035156 -4.015625 0.328125 C -6.816406 1.703125 -9.566406 3.160156 -12.265625 4.703125 C -13.898438 5.648438 -15.445312 6.75 -16.90625 8 C -18.082031 9.050781 -18.644531 9.972656 -18.59375 10.765625 C -18.550781 11.554688 -17.859375 12.269531 -16.515625 12.90625 C -13.472656 14.488281 -10.195312 15.132812 -6.6875 14.84375 C -4.300781 14.601562 -2.363281 13.703125 -0.875 12.140625 C 0.613281 10.578125 1.832031 8.707031 2.78125 6.53125 C 3.726562 4.363281 4.554688 2.195312 5.265625 0.03125 C 5.566406 -0.988281 5.890625 -1.957031 6.234375 -2.875 Z M 6.234375 -2.875 "/></g></g></g></svg>